<?xml version="1.0" encoding="UTF-8" standalone="no"?>
<!-- Generator: Adobe Illustrator 16.0.0, SVG Export Plug-In . SVG Version: 6.00 Build 0)  -->

<svg
   version="1.1"
   id="Layer_1"
   x="0px"
   y="0px"
   width="610.68201"
   height="690.07599"
   viewBox="0 0 610.68201 690.07599"
   enable-background="new 0 0 721.974 1000"
   xml:space="preserve"
   sodipodi:docname="tiktok big.svg"
   xmlns:inkscape="http://www.inkscape.org/namespaces/inkscape"
   xmlns:sodipodi="http://sodipodi.sourceforge.net/DTD/sodipodi-0.dtd"
   xmlns="http://www.w3.org/2000/svg"
   xmlns:svg="http://www.w3.org/2000/svg"><defs
   id="defs12" /><sodipodi:namedview
   id="namedview12"
   pagecolor="#505050"
   bordercolor="#eeeeee"
   borderopacity="1"
   inkscape:showpageshadow="0"
   inkscape:pageopacity="0"
   inkscape:pagecheckerboard="0"
   inkscape:deskcolor="#505050"><inkscape:page
     x="0"
     y="0"
     width="610.68201"
     height="690.07599"
     id="page2"
     margin="0"
     bleed="0" /></sodipodi:namedview>
<g
   id="g12"
   transform="translate(-89.325996)">
	
	<path
   fill="#ff004f"
   d="m 541.913,249.103 c 44.556,31.833 99.143,50.564 158.095,50.564 V 186.279 c -11.158,0.004 -22.286,-1.159 -33.201,-3.472 v 89.253 c -58.947,0 -113.526,-18.731 -158.095,-50.565 v 231.39 c 0,115.753 -93.883,209.583 -209.689,209.583 -43.208,0 -83.371,-13.055 -116.734,-35.447 38.079,38.912 91.179,63.055 149.927,63.055 115.815,0 209.701,-93.831 209.701,-209.587 V 249.103 Z M 582.869,134.709 C 560.098,109.846 545.149,77.712 541.913,42.187 V 27.603 h -31.462 c 7.918,45.149 34.931,83.725 72.418,107.106 z M 255.534,538.198 c -12.721,-16.673 -19.597,-37.07 -19.566,-58.041 0,-52.942 42.943,-95.865 95.922,-95.865 9.872,-0.007 19.686,1.507 29.097,4.49 v -115.92 c -10.996,-1.506 -22.092,-2.144 -33.188,-1.909 v 90.227 c -9.416,-2.983 -19.233,-4.498 -29.109,-4.491 -52.979,0 -95.918,42.923 -95.918,95.87 -0.001,37.435 21.463,69.851 52.762,85.639 z"
   id="path10" />
	<path
   d="m 508.712,221.495 c 44.568,31.833 99.147,50.565 158.095,50.565 V 182.807 C 633.904,175.805 604.773,158.615 582.869,134.709 545.382,111.328 518.369,72.752 510.451,27.603 H 427.81 v 452.88 c -0.188,52.795 -43.058,95.544 -95.923,95.544 -31.153,0 -58.83,-14.841 -76.356,-37.829 -31.3,-15.79 -52.763,-48.205 -52.763,-85.64 0,-52.946 42.939,-95.869 95.918,-95.869 10.15,0 19.933,1.58 29.11,4.49 v -90.226 c -113.771,2.349 -205.272,95.263 -205.272,209.534 0,57.042 22.787,108.755 59.766,146.536 33.364,22.392 73.526,35.449 116.734,35.449 115.806,0 209.689,-93.836 209.689,-209.584 V 221.495 Z"
   id="path11" />
	<path
   fill="#00f2ea"
   d="m 666.806,182.807 v -24.134 c -29.673,0.045 -58.761,-8.261 -83.937,-23.968 22.286,24.386 51.631,41.203 83.937,48.102 z M 510.451,27.603 c -0.758,-4.314 -1.337,-8.658 -1.739,-13.02 V 0 H 394.604 v 452.884 c -0.184,52.792 -43.049,95.541 -95.918,95.541 -15.524,0 -30.176,-3.682 -43.155,-10.227 17.527,22.988 45.203,37.829 76.356,37.829 52.861,0 95.734,-42.747 95.922,-95.543 V 27.603 Z M 327.798,270.953 V 245.26 c -9.534,-1.304 -19.148,-1.956 -28.771,-1.95 -115.819,0 -209.701,93.833 -209.701,209.575 0,72.566 36.898,136.516 92.966,174.135 -36.979,-37.782 -59.766,-89.496 -59.766,-146.537 0.001,-114.267 91.498,-207.181 205.272,-209.53 z"
   id="path12" />
</g>
</svg>
