<?xml version="1.0" encoding="UTF-8" standalone="no"?>
<!-- Created with Inkscape (http://www.inkscape.org/) -->
<svg xmlns:dc="http://purl.org/dc/elements/1.1/" xmlns:cc="http://creativecommons.org/ns#" xmlns:rdf="http://www.w3.org/1999/02/22-rdf-syntax-ns#" xmlns:svg="http://www.w3.org/2000/svg" xmlns="http://www.w3.org/2000/svg" xmlns:sodipodi="http://sodipodi.sourceforge.net/DTD/sodipodi-0.dtd" xmlns:inkscape="http://www.inkscape.org/namespaces/inkscape" width="1000" height="999.36133" viewBox="0 0 264.58333 264.41436" version="1.1" id="svg8" inkscape:version="0.92.4 (5da689c313, 2019-01-14)" sodipodi:docname="T3.svg">
  <defs id="defs2"/>
  <sodipodi:namedview id="base" pagecolor="#ffffff" bordercolor="#666666" borderopacity="1.0" inkscape:pageopacity="0.82352941" inkscape:pageshadow="2" inkscape:zoom="0.12374369" inkscape:cx="1139.3643" inkscape:cy="-2158.198" inkscape:document-units="px" inkscape:current-layer="layer1" showgrid="false" units="px" inkscape:window-width="958" inkscape:window-height="1008" inkscape:window-x="1913" inkscape:window-y="0" inkscape:window-maximized="0" inkscape:pagecheckerboard="true" fit-margin-top="0" fit-margin-left="0" fit-margin-right="0" fit-margin-bottom="0"/>
  <metadata id="metadata5">
    <rdf:RDF>
      <cc:Work rdf:about="">
        <dc:format>image/svg+xml</dc:format>
        <dc:type rdf:resource="http://purl.org/dc/dcmitype/StillImage"/>
        <dc:title/>
      </cc:Work>
    </rdf:RDF>
  </metadata>
  <g inkscape:label="Layer 1" inkscape:groupmode="layer" id="layer1" transform="translate(297.75699,616.69187)">
    <g id="g49" transform="matrix(1.686316,0,0,1.686316,-1253.055,-618.88408)">
      <path class="st1" d="m 645.1,1.3 c -43.4,0 -78.6,35.1 -78.6,78.3 0,43.2 35.1,78.5 78.6,78.5 43.2,0 78.3,-35.3 78.3,-78.5 C 723.5,36.2 688.3,1.3 645.1,1.3 Z" id="path51" inkscape:connector-curvature="0" style="fill:#001935"/>
      <path class="st0" d="m 651.2,97.3 c 0,7.1 3.6,9.5 9.2,9.5 h 8.1 v 18 h -15.3 c -13.7,0 -24,-7.1 -24,-24 V 73.7 H 616.7 V 59 c 13.7,-3.6 19.5,-15.4 20.2,-25.6 h 14.3 v 23.3 h 16.6 v 17 h -16.6 v 23.6" id="path53" inkscape:connector-curvature="0" style="fill:#ffffff"/>
    </g>
  </g>
</svg>